M48
; DRILL file {KiCad 9.0.2} date 2025-08-18T10:25:54-0300
; FORMAT={-:-/ absolute / metric / decimal}
; #@! TF.CreationDate,2025-08-18T10:25:54-03:00
; #@! TF.GenerationSoftware,Kicad,Pcbnew,9.0.2
; #@! TF.FileFunction,Plated,1,2,PTH
FMAT,2
METRIC
; #@! TA.AperFunction,Plated,PTH,ComponentDrill
T1C0.800
; #@! TA.AperFunction,Plated,PTH,ComponentDrill
T2C0.900
; #@! TA.AperFunction,Plated,PTH,ComponentDrill
T3C1.000
; #@! TA.AperFunction,Plated,PTH,ComponentDrill
T4C4.000
%
G90
G05
T1
X112.83Y-98.605
X115.37Y-98.605
X117.91Y-98.605
X120.45Y-98.605
T2
X189.665Y-91.025
X192.205Y-91.025
X198.395Y-91.025
X200.935Y-91.025
X203.475Y-91.025
T3
X97.45Y-86.755
X97.45Y-89.295
X97.45Y-91.835
X97.45Y-94.375
X97.45Y-96.915
X97.45Y-99.455
X98.63Y-105.73
X101.17Y-105.73
X103.71Y-105.73
X106.25Y-105.73
X113.13Y-105.73
X115.67Y-105.73
X118.21Y-105.73
X120.75Y-105.73
X193.32Y-97.125
X195.86Y-97.125
X198.4Y-97.125
X200.94Y-97.125
T4
X97.45Y-71.105
X121.45Y-71.105
M30
